<svg width="195" height="56" viewBox="0 0 195 56" fill="none" xmlns="http://www.w3.org/2000/svg">
<path d="M96.8931 16.6148C96.6822 16.3842 96.4029 16.2251 96.0951 16.1601C95.6474 16.0586 95.1888 16.0121 94.7295 16.0215C94.2473 16.0136 93.7658 16.0601 93.2943 16.1601C92.9375 16.238 92.6027 16.3933 92.3142 16.6148C92.0424 16.8319 91.8247 17.1077 91.6781 17.421C91.5004 17.803 91.3727 18.2058 91.2982 18.6197C91.1993 19.0223 91.1596 19.4368 91.1802 19.8506C91.1894 20.1456 91.2977 20.4292 91.4882 20.6568C91.7016 20.8799 91.9808 21.0312 92.2861 21.0892C92.7353 21.1856 93.1945 21.2288 93.654 21.2179C94.1357 21.227 94.617 21.1839 95.0892 21.0892C95.4434 21.0177 95.7772 20.87 96.067 20.6568C96.3407 20.4415 96.5587 20.1652 96.7031 19.8506C96.8801 19.4572 97.0073 19.0438 97.0819 18.6197C97.1689 18.2262 97.2067 17.8236 97.1943 17.421C97.1877 17.127 97.0825 16.8435 96.8953 16.6148H96.8931Z" fill="#1D307B"/>
<path d="M20.3756 38.5613C17.7647 38.5613 15.1516 38.5613 12.5407 38.5613C9.09141 38.5613 9.09141 42.7264 12.5407 42.7286C15.1516 42.7286 17.7647 42.7286 20.3756 42.7286C23.8249 42.7341 23.8249 38.5646 20.3756 38.5613Z" fill="#1D307B"/>
<path d="M59.1417 32.0232C58.9643 32.9091 58.6656 33.7671 58.2538 34.5737C57.8775 35.3259 57.4041 36.027 56.8456 36.6595C56.3577 37.2216 55.779 37.7001 55.1327 38.0756C54.5906 38.4035 53.9701 38.5837 53.3344 38.5979C52.9804 38.6108 52.6299 38.5251 52.3229 38.3506C52.0568 38.1882 51.8371 37.9615 51.6845 37.6919C51.5194 37.3982 51.4083 37.0779 51.3563 36.746C51.2956 36.3761 51.2659 36.0019 51.2676 35.6271C51.2711 35.0376 51.3139 34.449 51.3957 33.8651C51.4846 33.2285 51.6175 32.5986 51.7935 31.9799C51.9712 31.3634 52.1966 30.7614 52.4679 30.179C52.7193 29.6351 53.0375 29.1238 53.4154 28.6565C53.756 28.2309 54.1756 27.873 54.6517 27.6019C55.1191 27.3399 55.6483 27.2041 56.1858 27.2083C56.8804 27.1951 57.5638 27.3829 58.1516 27.7483C58.7158 28.112 59.2305 28.6535 59.6958 29.3729L59.1339 32.0276L59.1417 32.0232ZM65.7021 23.7507C65.6315 23.6378 65.5222 23.5536 65.3941 23.5134C65.1903 23.4443 64.9791 23.3986 64.7647 23.377C64.4338 23.3396 64.1008 23.323 63.7678 23.3271C62.9563 23.3271 62.3685 23.3862 62.0044 23.5045C61.6368 23.6154 61.4278 23.8205 61.3738 24.0967L61.0558 25.6491C60.4727 24.8318 59.7096 24.1555 58.8237 23.6708C57.9695 23.2195 56.9962 22.9933 55.888 22.9933C54.7952 22.9759 53.7111 23.1876 52.7073 23.6143C51.7841 24.02 50.9406 24.583 50.2156 25.2777C49.4835 25.985 48.8562 26.7906 48.3521 27.6707C47.8363 28.5625 47.4087 29.5013 47.0753 30.474C46.748 31.4263 46.5007 32.4036 46.3358 33.396C46.1855 34.2904 46.1066 35.1951 46.0998 36.1017C46.0961 36.9483 46.1858 37.7927 46.3673 38.6201C46.5294 39.3824 46.8372 40.1072 47.2743 40.7558C47.7056 41.383 48.289 41.8938 48.9714 42.2418C49.6727 42.6114 50.5565 42.7962 51.6227 42.7962C52.388 42.7962 53.1478 42.6695 53.8706 42.4214C54.5664 42.1846 55.2309 41.8663 55.8498 41.4733C56.4202 41.1156 56.9428 40.6887 57.4053 40.2025C57.7932 39.8112 58.1163 39.3621 58.3629 38.8718L57.8009 41.6862C57.7724 41.8072 57.783 41.9341 57.8312 42.0488C57.8986 42.165 58.0096 42.2503 58.1403 42.2861C58.3436 42.354 58.5546 42.3969 58.7686 42.4137C59.0271 42.4403 59.3631 42.4525 59.7801 42.4525C60.5916 42.4525 61.1816 42.3959 61.5469 42.2773C61.9122 42.1586 62.1212 41.9623 62.1752 41.6862L65.7425 24.0967C65.7716 23.9803 65.7572 23.8575 65.7021 23.7507Z" fill="#1D307B"/>
<path d="M80.6817 30.0171C80.6847 29.6045 80.647 29.1927 80.5693 28.7873C80.5098 28.4541 80.3887 28.1346 80.2119 27.8447C80.0546 27.5979 79.8335 27.3969 79.5712 27.2626C79.2761 27.1224 78.9511 27.0544 78.6238 27.0641C77.9852 27.0753 77.3618 27.2574 76.8199 27.5908C76.1769 27.9718 75.6008 28.453 75.1138 29.0158C74.557 29.6569 74.0815 30.3626 73.6976 31.1171C73.2812 31.9266 72.986 32.7913 72.821 33.6843L72.259 36.38C72.7266 37.106 73.2424 37.6516 73.8066 38.0168C74.3924 38.3852 75.0756 38.5743 75.7701 38.5602C76.2982 38.5642 76.8177 38.4278 77.2739 38.1654C77.7479 37.8882 78.1668 37.5282 78.5102 37.103C78.8936 36.6332 79.2153 36.1176 79.4678 35.5683C79.7414 34.9785 79.9669 34.3682 80.1422 33.743C80.3245 33.1143 80.4612 32.4736 80.5513 31.8257C80.6358 31.2249 80.6794 30.6192 80.6817 30.0127V30.0171ZM85.8517 29.5824C85.8447 30.5113 85.7643 31.4382 85.6112 32.3547C85.4485 33.358 85.2011 34.3462 84.8716 35.3088C84.5389 36.2889 84.1113 37.2351 83.5949 38.1343C83.094 39.0162 82.4659 39.8215 81.7303 40.5251C81.0023 41.2124 80.1583 41.7689 79.2363 42.1697C78.2378 42.5896 77.1612 42.7985 76.0758 42.7829C75.5728 42.7852 75.071 42.7321 74.5799 42.6243C74.1353 42.525 73.7036 42.3762 73.293 42.1807C72.9127 41.996 72.5546 41.7699 72.2253 41.5065C71.9192 41.2608 71.6387 40.9855 71.388 40.6848L69.8145 48.669C69.7868 48.8029 69.7218 48.9266 69.6268 49.0261C69.4967 49.1483 69.3398 49.2394 69.1682 49.2922C68.9051 49.3761 68.634 49.4329 68.359 49.4619C67.9483 49.5043 67.5356 49.5239 67.1227 49.5206C66.7232 49.5248 66.3239 49.5052 65.9269 49.4619C65.677 49.434 65.4314 49.3771 65.1952 49.2922C65.0514 49.2464 64.9284 49.1522 64.8479 49.0261C64.7953 48.9146 64.7811 48.7892 64.8074 48.669L69.7954 23.9525C69.8493 23.6741 70.0539 23.4767 70.4135 23.3581C70.7732 23.2394 71.3644 23.1796 72.1893 23.1796C72.5249 23.1763 72.8604 23.1926 73.1941 23.2283C73.4058 23.2508 73.614 23.2977 73.8145 23.3681C73.9428 23.4086 74.0523 23.4927 74.1236 23.6054C74.1778 23.7129 74.1913 23.836 74.1618 23.9525L73.5998 26.8279C73.8418 26.3296 74.1607 25.8713 74.5451 25.4695C75.0064 24.9765 75.5295 24.5435 76.1017 24.1809C76.7247 23.7818 77.3946 23.4589 78.0966 23.2195C78.8185 22.9678 79.5789 22.8406 80.3445 22.8436C81.3695 22.8436 82.2282 23.0177 82.9295 23.3681C83.6044 23.7025 84.1839 24.1981 84.6154 24.8097C85.0662 25.4553 85.3861 26.1809 85.5572 26.9465C85.7565 27.8116 85.8546 28.6964 85.8494 29.5835L85.8517 29.5824Z" fill="#1D307B"/>
<path d="M95.0836 23.4091C94.8461 23.3203 94.5978 23.2626 94.3452 23.2372C93.9446 23.1912 93.5414 23.1705 93.1381 23.1752C92.7281 23.171 92.3182 23.1918 91.9108 23.2372C91.6398 23.2646 91.3728 23.3223 91.115 23.4091C90.9437 23.4611 90.7863 23.5501 90.6542 23.6697C90.5573 23.7661 90.4919 23.8889 90.4665 24.0224L86.934 41.9867C86.9058 42.1059 86.9209 42.2311 86.9768 42.3405C87.0573 42.464 87.1808 42.5543 87.324 42.5944C87.5637 42.6731 87.8119 42.7238 88.0636 42.7452C88.3738 42.7763 88.7773 42.7929 89.2684 42.7929C89.7596 42.7929 90.1518 42.7763 90.4845 42.7452C90.7583 42.7219 91.0291 42.6714 91.2926 42.5944C91.4633 42.5458 91.6202 42.4589 91.7512 42.3405C91.8484 42.2435 91.9144 42.1205 91.9411 41.9867L95.4713 24.0279C95.4974 23.9094 95.484 23.7857 95.4331 23.6753C95.3502 23.5504 95.2271 23.4566 95.0836 23.4091Z" fill="#1D307B"/>
<path d="M112.729 41.9878C112.701 42.1204 112.634 42.2421 112.537 42.3382C112.407 42.4571 112.25 42.5431 112.079 42.5888C111.819 42.666 111.552 42.7166 111.281 42.7396C110.954 42.7707 110.54 42.7873 110.034 42.7873C109.554 42.7873 109.162 42.7707 108.847 42.7396C108.599 42.7198 108.355 42.6692 108.12 42.5888C107.978 42.5471 107.855 42.4586 107.771 42.3382C107.711 42.2319 107.692 42.1069 107.72 41.9878L109.855 31.2746C109.91 30.9929 109.955 30.6758 109.996 30.322C110.033 30.0069 110.053 29.6901 110.055 29.3728C110.058 29.0995 110.028 28.8268 109.968 28.56C109.914 28.3296 109.815 28.1118 109.677 27.919C109.543 27.7387 109.365 27.5945 109.16 27.4999C108.921 27.3941 108.661 27.3425 108.4 27.3491C107.854 27.3491 107.285 27.5228 106.695 27.8702C106.062 28.2511 105.496 28.7312 105.019 29.2919C104.467 29.9339 103.995 30.639 103.613 31.3921C103.201 32.1974 102.906 33.056 102.736 33.9426L101.121 41.9933C101.094 42.1249 101.026 42.2451 100.928 42.3382C100.797 42.4562 100.64 42.5421 100.469 42.5888C100.205 42.6669 99.9338 42.7174 99.659 42.7396C99.3286 42.7707 98.9218 42.7873 98.4441 42.7873C97.9664 42.7873 97.545 42.7707 97.237 42.7396C96.9856 42.7187 96.7377 42.668 96.4986 42.5888C96.355 42.55 96.2308 42.4609 96.149 42.3382C96.0947 42.2295 96.0812 42.1054 96.1108 41.9878L101.356 15.6545C101.382 15.5206 101.444 15.396 101.536 15.2941C101.662 15.1667 101.82 15.0735 101.993 15.0235C102.256 14.9393 102.528 14.882 102.803 14.8527C103.21 14.809 103.62 14.7894 104.03 14.794C104.432 14.789 104.835 14.8086 105.235 14.8527C105.484 14.8773 105.729 14.9347 105.963 15.0235C106.104 15.072 106.223 15.1678 106.3 15.2941C106.355 15.4063 106.369 15.5334 106.34 15.6545L104.925 22.9023C104.857 23.1962 104.785 23.5122 104.707 23.8449C104.628 24.1776 104.535 24.5102 104.436 24.8352C104.337 25.1601 104.236 25.4805 104.137 25.7866C104.038 26.0927 103.938 26.3666 103.846 26.6072C104.133 26.1375 104.483 25.7073 104.884 25.3275C105.339 24.8854 105.844 24.4955 106.388 24.1654C106.968 23.8124 107.587 23.527 108.233 23.3148C108.885 23.0946 109.568 22.9822 110.256 22.9822C111.162 22.9822 111.925 23.1097 112.55 23.3625C113.141 23.5909 113.667 23.9547 114.087 24.4238C114.494 24.8948 114.79 25.4488 114.954 26.0461C115.14 26.7185 115.231 27.4129 115.224 28.1098C115.223 28.5877 115.196 29.0651 115.144 29.5403C115.089 30.0138 115.017 30.4851 114.92 30.9519L112.729 41.9878Z" fill="#1D307B"/>
<path d="M131.24 30.2733C131.247 29.7748 131.19 29.2774 131.071 28.7929C130.974 28.3897 130.781 28.0148 130.51 27.6984C130.24 27.393 129.898 27.1583 129.514 27.0153C128.44 26.6521 127.267 26.7052 126.232 27.1639C125.697 27.425 125.215 27.7788 124.807 28.2085C124.374 28.6626 124.008 29.1739 123.719 29.7277C123.411 30.3097 123.158 30.9185 122.962 31.5463C122.763 32.1787 122.616 32.8263 122.523 33.4825C122.432 34.1046 122.385 34.7323 122.382 35.361C122.377 35.8627 122.434 36.3633 122.552 36.8513C122.651 37.2564 122.844 37.6335 123.114 37.9536C123.385 38.2597 123.728 38.4952 124.113 38.6389C125.185 39.0037 126.358 38.9505 127.392 38.4903C127.929 38.229 128.413 37.8723 128.819 37.4379C129.249 36.9781 129.615 36.463 129.905 35.9065C130.215 35.3218 130.469 34.7096 130.662 34.0779C130.86 33.4449 131.007 32.7975 131.103 32.1418C131.193 31.5228 131.238 30.8985 131.24 30.2733ZM136.427 29.9351C136.424 30.9216 136.334 31.906 136.157 32.877C135.977 33.8865 135.693 34.8752 135.309 35.8278C134.926 36.7839 134.427 37.6908 133.824 38.5291C133.216 39.3749 132.483 40.1258 131.649 40.7569C130.773 41.4161 129.793 41.929 128.748 42.275C127.658 42.6446 126.427 42.8295 125.056 42.8295C123.714 42.8295 122.554 42.672 121.579 42.3637C120.671 42.0927 119.837 41.6252 119.135 40.9953C118.475 40.3798 117.976 39.6153 117.681 38.7675C117.345 37.793 117.181 36.7685 117.198 35.7391C117.202 34.7528 117.293 33.7688 117.471 32.7983C117.649 31.7914 117.933 30.8055 118.317 29.8563C118.705 28.8978 119.206 27.9878 119.81 27.145C120.412 26.2924 121.145 25.5378 121.982 24.9084C122.86 24.2555 123.838 23.7456 124.879 23.398C125.969 23.0284 127.199 22.8436 128.569 22.8436C129.91 22.8436 131.072 22.9988 132.053 23.3093C132.96 23.5818 133.794 24.0495 134.496 24.6788C135.155 25.2955 135.654 26.0596 135.95 26.9066C136.286 27.8817 136.448 28.9066 136.43 29.9362L136.427 29.9351Z" fill="#1D307B"/>
<path d="M152.088 29.2442C151.62 28.5168 151.108 27.9712 150.542 27.6086C149.955 27.2396 149.271 27.0502 148.575 27.0641C148.041 27.0579 147.515 27.1947 147.052 27.46C146.579 27.7373 146.16 28.0968 145.816 28.5212C145.433 28.9913 145.112 29.5073 144.86 30.057C144.586 30.6464 144.36 31.2564 144.185 31.8812C144.009 32.5054 143.876 33.1408 143.787 33.783C143.704 34.3813 143.661 34.9844 143.658 35.5883C143.653 36.0002 143.691 36.4115 143.771 36.8158C143.836 37.149 143.962 37.4679 144.142 37.7573C144.297 38.0074 144.516 38.2128 144.778 38.3528C145.072 38.4982 145.398 38.5695 145.726 38.5602C146.362 38.5468 146.983 38.3657 147.525 38.0356C148.171 37.6561 148.75 37.1735 149.237 36.6074C149.797 35.9683 150.27 35.26 150.645 34.5004C151.054 33.683 151.353 32.8163 151.534 31.9222L152.096 29.2475L152.088 29.2442ZM154.401 42.3659C154.197 43.4656 153.818 44.5264 153.277 45.5086C152.783 46.3873 152.104 47.1509 151.285 47.7475C150.461 48.35 149.46 48.8024 148.281 49.1048C147.102 49.4072 145.73 49.5594 144.165 49.5617C143.145 49.5714 142.126 49.4819 141.124 49.2944C140.35 49.1551 139.595 48.9258 138.876 48.6113C138.699 48.5344 138.546 48.4109 138.435 48.2543C138.348 48.0827 138.307 47.8917 138.316 47.6998C138.316 47.6188 138.323 47.4858 138.334 47.3028C138.353 47.0962 138.383 46.8907 138.425 46.6874C138.472 46.4656 138.53 46.2272 138.595 45.9821C138.655 45.7566 138.739 45.538 138.846 45.3301C138.932 45.1569 139.043 44.9968 139.175 44.8543C139.227 44.7961 139.291 44.7493 139.363 44.717C139.434 44.6847 139.512 44.6677 139.591 44.6669C139.798 44.679 140.001 44.7366 140.183 44.8355C140.484 44.9754 140.793 45.0976 141.108 45.2014C142.251 45.5802 143.453 45.7607 144.659 45.7348C145.271 45.7418 145.882 45.6894 146.484 45.5785C146.979 45.4871 147.455 45.3123 147.89 45.0617C148.278 44.8333 148.608 44.5218 148.857 44.1502C149.123 43.7332 149.302 43.2685 149.385 42.7829C149.559 41.9224 149.732 41.2023 149.904 40.6227C150.075 40.0431 150.235 39.5667 150.384 39.1933C150.11 39.6751 149.763 40.1133 149.357 40.493C148.893 40.9354 148.381 41.3249 147.829 41.654C147.254 41.9981 146.639 42.2725 145.997 42.4713C145.355 42.6731 144.685 42.7767 144.011 42.7785C142.988 42.7785 142.127 42.6069 141.426 42.2639C140.746 41.9344 140.16 41.4432 139.721 40.8345C139.266 40.1901 138.944 39.4631 138.774 38.6954C138.576 37.8219 138.479 36.9291 138.485 36.0341C138.503 34.0851 138.837 32.1515 139.474 30.3065C139.811 29.3336 140.24 28.3943 140.756 27.501C141.262 26.6213 141.892 25.8164 142.625 25.1102C143.349 24.4172 144.193 23.8576 145.117 23.4579C146.115 23.0351 147.192 22.8254 148.278 22.8425C149.383 22.8425 150.361 23.0702 151.21 23.5255C152.099 24.0147 152.863 24.6974 153.444 25.5216L153.763 23.9558C153.817 23.6775 154.025 23.4801 154.391 23.3614C154.756 23.2428 155.347 23.1829 156.158 23.1829C156.491 23.1803 156.824 23.1966 157.154 23.2317C157.369 23.2538 157.581 23.3006 157.785 23.3714C157.912 23.4121 158.02 23.4962 158.09 23.6087C158.145 23.7148 158.161 23.8362 158.135 23.9525L154.405 42.367L154.401 42.3659Z" fill="#1D307B"/>
<path d="M172.206 29.4882C171.739 28.7666 171.224 28.2255 170.66 27.8647C170.074 27.4971 169.39 27.3085 168.696 27.3225C168.157 27.3172 167.627 27.4534 167.159 27.7172C166.683 27.9875 166.264 28.3446 165.923 28.7696C165.544 29.2374 165.226 29.7495 164.975 30.2943C164.701 30.8756 164.476 31.4774 164.3 32.0941C163.961 33.2829 163.783 34.5108 163.771 35.7457C163.77 36.1216 163.8 36.4969 163.861 36.868C163.913 37.1988 164.025 37.5179 164.19 37.8105C164.35 38.1016 164.59 38.3416 164.884 38.5019C165.177 38.6623 165.511 38.7364 165.846 38.7154C166.481 38.703 167.102 38.523 167.644 38.1942C168.29 37.8179 168.869 37.3395 169.358 36.7781C169.915 36.145 170.388 35.444 170.765 34.6923C171.173 33.8841 171.471 33.0266 171.653 32.1418L172.215 29.4871L172.206 29.4882ZM174.678 41.8037C174.624 42.0798 174.417 42.2783 174.05 42.397C173.684 42.5156 173.096 42.5733 172.284 42.5733C171.947 42.5773 171.609 42.5639 171.273 42.5334C171.059 42.5166 170.848 42.4738 170.645 42.4059C170.515 42.3693 170.404 42.2852 170.336 42.1708C170.286 42.0547 170.275 41.9261 170.305 41.8037L170.867 38.9926C170.618 39.4815 170.295 39.9302 169.91 40.3233C169.447 40.8087 168.925 41.2349 168.355 41.5919C167.735 41.9841 167.069 42.3009 166.372 42.5356C165.649 42.7837 164.889 42.91 164.124 42.9093C163.059 42.9093 162.175 42.7245 161.472 42.3549C160.79 42.0072 160.206 41.4964 159.775 40.8689C159.34 40.2193 159.032 39.4948 158.867 38.7332C158.686 37.9057 158.596 37.0614 158.599 36.2148C158.605 35.308 158.686 34.4032 158.839 33.5091C159.002 32.5162 159.249 31.5385 159.576 30.586C159.91 29.6136 160.337 28.6752 160.853 27.7838C161.358 26.9043 161.987 26.0997 162.721 25.3941C163.446 24.6983 164.291 24.1351 165.216 23.7307C166.22 23.304 167.305 23.0927 168.398 23.1108C169.501 23.1108 170.478 23.3326 171.33 23.7873C172.216 24.2728 172.979 24.949 173.563 25.7655L173.883 24.2131C173.937 23.9358 174.145 23.7385 174.511 23.6231C174.877 23.5078 175.465 23.4446 176.277 23.4446C176.609 23.4408 176.942 23.4571 177.272 23.4934C177.486 23.5148 177.697 23.561 177.9 23.6309C178.029 23.6697 178.139 23.7542 178.209 23.8682C178.264 23.9746 178.278 24.0971 178.249 24.2131L174.68 41.8059L174.678 41.8037Z" fill="#1D307B"/>
<path d="M193.262 23.9702C193.262 24.0649 193.249 24.2312 193.222 24.4692C193.195 24.7099 193.155 24.9893 193.103 25.3076C193.051 25.6258 192.98 25.9585 192.899 26.2967C192.824 26.6175 192.733 26.9343 192.625 27.246C192.545 27.4985 192.431 27.7397 192.288 27.9634C192.159 28.1497 192.022 28.2451 191.873 28.2451C191.748 28.2444 191.624 28.2207 191.507 28.1752C191.385 28.1275 191.252 28.081 191.103 28.0333C190.955 27.9856 190.793 27.9412 190.617 27.8947C190.419 27.846 190.216 27.8225 190.012 27.8248C189.551 27.8248 189.06 27.9989 188.54 28.3438C187.981 28.7266 187.481 29.1876 187.056 29.7122C186.554 30.319 186.127 30.9823 185.784 31.6883C185.415 32.4399 185.147 33.2358 184.986 34.0558L183.366 42.0666C183.34 42.1995 183.272 42.3211 183.173 42.4147C183.04 42.5327 182.88 42.6185 182.708 42.6654C182.441 42.7424 182.167 42.7926 181.889 42.8151C181.552 42.8472 181.14 42.865 180.653 42.865C180.167 42.865 179.745 42.8472 179.429 42.8151C179.175 42.7941 178.923 42.7438 178.681 42.6654C178.536 42.6248 178.411 42.5363 178.326 42.4147C178.272 42.3066 178.258 42.1838 178.285 42.0666L181.889 24.2308C181.915 24.0991 181.978 23.9772 182.07 23.8793C182.188 23.7671 182.331 23.6849 182.487 23.6398C182.719 23.5717 182.956 23.5246 183.195 23.4989C183.541 23.4644 183.889 23.4481 184.236 23.4502C184.578 23.447 184.92 23.4633 185.26 23.4989C185.471 23.5227 185.678 23.5699 185.877 23.6398C186.001 23.6813 186.106 23.7666 186.17 23.8793C186.219 23.9902 186.229 24.1135 186.201 24.2308L185.639 27.0663C185.956 26.5029 186.333 25.974 186.763 25.4883C187.167 25.0262 187.619 24.6073 188.111 24.2386C188.569 23.8993 189.069 23.6211 189.601 23.4113C190.083 23.2171 190.598 23.1154 191.119 23.1119C191.326 23.113 191.532 23.126 191.737 23.1508C191.944 23.1785 192.141 23.2106 192.323 23.2517C192.49 23.2855 192.653 23.3356 192.809 23.4014C192.931 23.4482 193.044 23.5124 193.147 23.5921C193.191 23.6439 193.225 23.7041 193.246 23.769C193.267 23.834 193.274 23.9024 193.268 23.9702H193.262Z" fill="#1D307B"/>
<path d="M46.9798 24.0634C46.9798 24.1554 46.9664 24.3229 46.9394 24.5613C46.9124 24.7997 46.8719 25.078 46.818 25.3952C46.7641 25.7123 46.6966 26.045 46.6168 26.381C46.537 26.717 46.4449 27.0353 46.3437 27.328C46.2626 27.5808 46.1469 27.8214 45.9998 28.0433C45.8717 28.2285 45.7357 28.3227 45.5884 28.3227C45.4634 28.3211 45.3397 28.2974 45.2232 28.2529C45.104 28.2052 44.9703 28.1597 44.8208 28.1131C44.6713 28.0666 44.5106 28.0211 44.3364 27.9734C44.1387 27.9245 43.9355 27.901 43.7317 27.9035C43.2743 27.9035 42.7888 28.0765 42.2706 28.4214C41.7137 28.8035 41.2152 29.2625 40.7904 29.7843C40.2928 30.3896 39.8692 31.0506 39.5283 31.7537C39.1604 32.5026 38.8926 33.2954 38.7314 34.1123L37.1208 42.0965C37.0924 42.2296 37.0243 42.3512 36.9253 42.4458C36.7932 42.5636 36.6344 42.6484 36.4622 42.6931C36.1958 42.7709 35.922 42.8214 35.6451 42.8439C35.3079 42.8749 34.8988 42.8916 34.4156 42.8916C33.9323 42.8916 33.5164 42.8749 33.1961 42.8439C32.9421 42.8234 32.6915 42.7728 32.4498 42.6931C32.3057 42.6555 32.1803 42.5676 32.0969 42.4458C32.042 42.3377 32.0277 42.214 32.0564 42.0965L35.6451 24.3273C35.6722 24.1964 35.7356 24.0754 35.8283 23.978C35.9415 23.8641 36.0812 23.7792 36.2352 23.7307C36.4652 23.6614 36.7016 23.6149 36.941 23.5921C37.2859 23.5564 37.6327 23.5401 37.9795 23.5433C38.3196 23.5391 38.6597 23.5553 38.9978 23.5921C39.2077 23.6129 39.4143 23.6595 39.6126 23.7307C39.7369 23.7716 39.8414 23.8566 39.9059 23.9691C39.9531 24.0795 39.9637 24.2018 39.9362 24.3184L39.3743 27.1428C39.6902 26.5808 40.067 26.0543 40.4982 25.5726C40.9025 25.1122 41.3545 24.6949 41.8469 24.3273C42.3003 23.99 42.7979 23.7148 43.326 23.5089C43.8058 23.3146 44.319 23.2133 44.8377 23.2106C45.0432 23.2106 45.2486 23.2235 45.4524 23.2494C45.6592 23.2772 45.8559 23.3082 46.0358 23.3492C46.2021 23.3837 46.3647 23.4338 46.5213 23.499C46.6402 23.5466 46.7518 23.6105 46.8528 23.6886C46.8982 23.7396 46.9328 23.799 46.9546 23.8634C46.9764 23.9277 46.985 23.9957 46.9798 24.0634Z" fill="#1D307B"/>
<path d="M20.3992 32.4844C17.7883 32.4844 10.9144 32.4844 8.30242 32.4844C4.85086 32.4844 4.85199 36.6484 8.30242 36.6528C10.9144 36.6528 17.7883 36.6528 20.3992 36.6528C23.8485 36.6528 23.8485 32.4878 20.3992 32.4844Z" fill="#1D307B"/>
<path d="M20.3991 26.2601C17.7883 26.2601 6.6019 26.2601 3.98991 26.2601C0.538356 26.2601 0.538356 30.474 3.98991 30.474C6.60302 30.474 17.7894 30.474 20.3991 30.474C23.8484 30.474 23.8484 26.2601 20.3991 26.2601Z" fill="#1D307B"/>
<path d="M65.8909 14.3925C58.7663 10.4071 51.6429 5.86057 44.5184 1.87404C43.7317 1.43047 42.6606 1.37281 41.8772 1.87404C33.9772 6.91958 26.0749 12.5307 18.1794 17.5696C15.3538 19.3727 17.9782 23.8482 20.8195 22.0307C22.121 21.199 23.4225 20.3474 24.7239 19.488C24.7239 30.3509 24.7239 41.2138 24.7239 52.0766C24.7239 53.8332 26.3637 54.8489 27.9968 54.5351C38.3481 52.5746 48.6998 50.6133 59.0518 48.6512C62.3224 48.0325 60.9355 43.1155 57.6784 43.7332L31.2101 48.7488L31.191 48.7155C30.2233 48.8508 29.9648 48.3197 29.894 48.0203C29.894 37.3592 29.894 26.6977 29.894 16.0359C34.3582 13.0241 38.8224 9.97352 43.2866 7.12362C46.9023 9.14738 50.519 11.3375 54.1358 13.5109C54.1358 13.5608 54.129 13.6096 54.1279 13.6618C54.1279 16.1368 54.1249 18.6105 54.1189 21.0826C54.8008 20.9472 55.4948 20.8804 56.1903 20.883C57.1794 20.8741 58.1618 21.044 59.0889 21.3842C59.0889 19.7445 59.0912 18.1044 59.0956 16.464C60.4781 17.2768 61.8616 18.0752 63.2463 18.8515C66.1865 20.4971 68.8243 16.0326 65.8909 14.3903V14.3925Z" fill="#D34847"/>
</svg>
